<svg xmlns="http://www.w3.org/2000/svg" width="615" height="610" fill="none">
  <path fill="#ECF4FD" fill-rule="evenodd" d="M234.479 282h-73.92c-20.542 0-50.673 7.923-69.959 7.923-19.285 0-33.649 14.391 18.155 14.391s177.298 0 156.781-11.157C245.02 282 234.479 282 234.479 282zM129.421 334.134h-35.85c-4.935 0-34.11-1.869-40.124-.808-6.124 1.081-12.181 2.172-16.9 2.172-9.353 0-25.123 18.139 0 18.139 6.528 0 18.108.106 27.594 0 5.738-.064 23.72-9.386 29.43-10.295 21.175-3.369 56.712.342 50.912-3.175-9.95-6.033-15.062-6.033-15.062-6.033z" clip-rule="evenodd"/>
  <path fill="#ECF4FD" fill-rule="evenodd" d="M106.421 352.134h-35.85c-4.935 0-34.11-1.869-40.124-.808-6.124 1.081-12.181 2.172-16.9 2.172-9.353 0-25.123 18.139 0 18.139 6.528 0 18.108.106 27.594 0 5.739-.064 23.72-9.386 29.43-10.295 21.175-3.369 56.712.342 50.912-3.175-9.95-6.033-15.062-6.033-15.062-6.033z" clip-rule="evenodd"/>
  <path fill="#8CB9F1" fill-rule="evenodd" d="M338.11 320s-137.57 12.036-127.411 28.497c10.158 16.461 24.549 45.629 115.535 37.899 90.985-7.73 229.01-17.674 146.631-32.559C390.485 338.952 338.11 320 338.11 320z" clip-rule="evenodd" opacity=".165"/>
  <path fill="#C6DFFF" fill-rule="evenodd" d="M515.528 332.269c0 20.941-68.37 37.916-152.707 37.916-84.337 0-152.707-16.975-152.707-37.916 0-20.942 68.37-37.917 152.707-37.917 84.337 0 152.707 16.975 152.707 37.917z" clip-rule="evenodd"/>
  <path fill="#8CB9F1" fill-rule="evenodd" d="M467.9 332.269c0 14.41-47.046 26.09-105.078 26.09-58.033 0-105.078-11.68-105.078-26.09s47.045-26.091 105.078-26.091c58.032 0 105.078 11.681 105.078 26.091z" clip-rule="evenodd"/>
  <path fill="#FF9E00" fill-rule="evenodd" d="M450.726 306.736c.54-1.601.716-3.264.366-4.972-1.144-5.567-5.034-9.72-9.984-12.22.065-1.827-.352-3.688-1.214-5.246-2.881-5.209-9.41-8.023-14.48-10.503-5.351-2.614-10.904-4.818-16.573-6.65a22.441 22.441 0 0 0-.567-2.786c-2.704-9.861-10.883-17.792-20.429-21.087-13.429-4.634-43.937-3.352-58.923 9.204-14.29 11.971-13.063 22.764-12.833 23.377-5.949 3.239-11.539 7.302-16.926 11.407-3.618 2.756-8.171 6.246-7.787 11.345.065.879.292 1.672.609 2.414-4.336 3.938-9.742 6.981-11.909 12.578-1.675 4.326-1.378 9.488 2.549 12.209-3.304 5.635-4.559 16.965 2.659 20.133 3.372 1.479 7.338-1.876 10.19-3.194 5.947-2.743 12.198-4.8 18.011-7.832a49.179 49.179 0 0 0 6.259-3.87c3.503 2.663 8.489 1.657 12.437.253 5.651-2.009 11.215-4.207 16.871-6.184.277 1.203.566 2.411.901 3.625 2.651 9.641 15.377 7.823 23.17 6.74 10.29-1.427 20.42-6.615 24.517-16.692.111-.271.198-.542.296-.814 2.456.355 4.902.84 7.325 1.511 4.283 1.186 11.018 6.062 14.928 1.935.18-.19.307-.41.471-.606 4.213 1.939 8.833 2.444 13.969.21.988-.43 2.081-.968 3.214-1.585 7.218 6.227 19.565 13.443 23.033 2.517 2.636-8.308-3.294-12.829-10.15-15.217z" clip-rule="evenodd"/>
  <path stroke="#FFBE00" stroke-width="4" d="M450.726 306.736c.54-1.601.716-3.264.366-4.972-1.144-5.567-5.034-9.72-9.984-12.22.065-1.827-.352-3.688-1.214-5.246-2.881-5.209-9.41-8.023-14.48-10.503-5.351-2.614-10.904-4.818-16.573-6.65a22.441 22.441 0 0 0-.567-2.786c-2.704-9.861-10.883-17.792-20.429-21.087-13.428-4.634-43.937-3.352-58.923 9.204-14.29 11.971-13.063 22.764-12.833 23.377-5.949 3.239-11.539 7.302-16.926 11.407-3.618 2.756-8.171 6.246-7.787 11.345.065.879.292 1.672.609 2.414-4.336 3.938-9.742 6.981-11.909 12.578-1.675 4.326-1.378 9.488 2.549 12.209-3.304 5.635-4.559 16.965 2.659 20.133 3.372 1.479 7.338-1.876 10.19-3.194 5.947-2.743 12.198-4.8 18.011-7.832a49.179 49.179 0 0 0 6.259-3.87c3.503 2.663 8.489 1.657 12.437.253 5.651-2.009 11.215-4.207 16.871-6.184.277 1.203.566 2.411.901 3.625 2.651 9.641 15.377 7.823 23.17 6.74 10.29-1.427 20.42-6.615 24.517-16.692.111-.271.198-.542.296-.814 2.456.355 4.902.84 7.325 1.511 4.283 1.186 11.018 6.062 14.928 1.935.18-.19.307-.41.471-.606 4.213 1.939 8.833 2.444 13.969.21.988-.43 2.081-.968 3.214-1.585 7.218 6.227 19.565 13.443 23.033 2.517 2.636-8.308-3.294-12.829-10.15-15.217"/>
  <path fill="#FFBE00" fill-rule="evenodd" d="M315.494 277.821c9.839 6.136 17.796 14.548 22.931 24.977 3.914 7.954 4.746 16.897 8.884 24.703 1.464 2.759 5.472.001 4.018-2.741-5.292-9.98-6.048-21.211-12.405-30.941-5.497-8.411-12.775-15.057-21.271-20.357-2.659-1.658-4.789 2.716-2.157 4.359zM407.155 263.428c-4.358 8.119-8.791 16.399-11.056 25.395-2.575 10.222.086 20.601-2.207 30.765-.689 3.057 4.081 4.012 4.769.96 2.06-9.135-.13-18.311 1.482-27.497 1.722-9.814 6.716-18.794 11.373-27.468 1.483-2.766-2.884-4.907-4.361-2.155zM439.646 287.552c-5.938 2.343-13.139 2.969-17.191 8.484-4.562 6.208-3.649 15.956-4.164 23.223-.219 3.084 4.548 4.076 4.769.963.436-6.143-.324-14.421 2.68-19.962 3.024-5.581 10.092-5.98 15.524-8.122 2.899-1.146 1.306-5.74-1.618-4.586zM450.333 303.85c-5.098-.086-14.015-2.097-16.99 3.465-2.825 5.283.964 10.256 4.546 13.905 2.195 2.239 5.371-1.443 3.192-3.667-1.741-1.773-6.813-7.747-1.777-8.957 1.521-.367 3.381-.03 4.931-.004 2.146.035 4.292.073 6.437.108 3.13.052 2.771-4.798-.339-4.85zM293.538 303.679c14.822-.514 22.433 13.436 23.569 26.442.272 3.113 5.124 2.782 4.851-.339-1.381-15.817-11.183-31.563-28.759-30.952-3.13.108-2.787 4.957.339 4.849zM281.037 328.228c3.616.566 7.352.921 10.909 1.795 1.855.457 3.821 1.036 5.244 2.395.614.585 3.016 3.988 1.411 4.811l2.449-.171c-.151-.058-.301-.113-.449-.169-2.908-1.097-5.084 3.254-2.156 4.357 6.016 2.267 5.877-6.838 3.898-10.093-4.009-6.602-13.602-6.637-20.343-7.692-3.087-.482-4.059 4.284-.963 4.767zM364.95 250.968c8.049-.697 15.533 1.13 22.405 5.365 2.667 1.646 4.799-2.729 2.156-4.359-7.54-4.646-16.083-6.62-24.9-5.855-3.115.269-2.786 5.12.339 4.849zM394.538 263.205c.162.001.325.001.487.003 1.313.006 2.343-1.355 2.257-2.594-.098-1.395-1.279-2.248-2.596-2.255a39.653 39.653 0 0 0-.487-.003c-1.315-.008-2.343 1.355-2.257 2.594.098 1.395 1.277 2.248 2.596 2.255z" clip-rule="evenodd"/>
  <path fill="#0172FF" fill-rule="evenodd" d="M228.724 82l-1.626-69.14c1.644-.54 2.842-2.072 2.842-3.9V4.183a4.128 4.128 0 0 0-4.13-4.124h-22.579a4.126 4.126 0 0 0-4.128 4.124V8.96c0 1.828 1.196 3.36 2.842 3.9L200.317 82c-15.565 5.774-26.676 20.708-26.676 38.276v161.196c0 9.421 7.639 17.059 17.066 17.059h47.629c9.425 0 17.064-7.638 17.064-17.059V120.276c0-17.568-11.111-32.502-26.676-38.277z" clip-rule="evenodd"/>
  <path fill="#0759BE" fill-rule="evenodd" d="M229.948 4.18v4.785c0 1.824-1.208 3.364-2.844 3.908l.759 32.193h-26.686l.759-32.193c-1.634-.544-2.844-2.084-2.844-3.908V4.18c0-2.273 1.848-4.122 4.149-4.122h22.56c2.299 0 4.147 1.849 4.147 4.122z" clip-rule="evenodd"/>
  <path fill="#FF9E00" fill-rule="evenodd" d="M181.341 233.387h65.172V126.789h-65.172v106.598z" clip-rule="evenodd"/>
  <path fill="#fff" fill-rule="evenodd" d="M222.815.058l-.395 10.66h-4.741s-2.171 63.564 1.582 63.564c4.542 0 2.764-59.222 2.764-59.222l5.079-2.188L225.801.058h-2.986zM220.84 86.915c-4.095.682 13.428 7.303 13.428 21.517v178.65s-.394 1.973-3.554 5.131c-3.159 3.16 5.926 2.368 8.295-1.184 2.37-3.553 4.344-173.32 3.554-182.004-.79-8.686-8.689-24.282-21.723-22.11z" clip-rule="evenodd" opacity=".248"/>
  <path fill="#C6DFFF" fill-rule="evenodd" d="M153.346 338.019v.159c0 1.188-1.731 2.158-3.849 2.158h-54.1c-2.223 0-3.98-1.044-3.824-2.288v-.101c.129-1.101 1.731-1.984 3.722-2.013l15.56-.276c1.136-.014 2.171-.317 2.895-.811l3.231-2.257c.515-.378.827-.842.827-1.319l.542-69.086a33.744 33.744 0 0 1-1.758-.348h11.605c-.593.144-1.188.261-1.783.362l1.06 68.551c0 .346.181.694.465.998l2.404 2.477c.646.651 1.835 1.071 3.154 1.116l16.231.535c2.016.058 3.618 1.013 3.618 2.143zM160.765 189.639H84.127c.545-12.635 3.078-24.286 7.033-34.026h62.575c3.952 9.74 6.487 21.391 7.03 34.026z" clip-rule="evenodd"/>
  <path fill="#0172FF" fill-rule="evenodd" d="M160.894 195.013c0 34.463-16.257 60.351-32.697 66.964h-11.603C98.913 255.131 84 229.554 84 195.013c0-1.809.052-3.617.128-5.375h76.638c.076 1.758.128 3.566.128 5.375z" clip-rule="evenodd"/>
  <path fill="#fff" fill-rule="evenodd" d="M154.639 187.477c-.871-5.623-3.931-13.566-6.97-18.859.07 4.083.14 8.159.17 12.223 4.155 12.592 4.758 34.109-.954 47.111-1.073 2.443-2.355 4.669-3.742 6.732-.549 2.95-1.36 5.902-2.183 8.774 2.225-2.398 4.071-4.698 5.064-6.464 3.877-6.889 13.354-18.945 8.615-49.517z" clip-rule="evenodd" opacity=".392"/>
  <path fill="#C6DFFF" fill-rule="evenodd" d="M102.346 358.019v.159c0 1.188-1.731 2.158-3.85 2.158H44.399c-2.224 0-3.98-1.044-3.825-2.288v-.101c.129-1.101 1.731-1.984 3.721-2.013l15.561-.276c1.136-.014 2.171-.317 2.895-.811l3.23-2.257c.516-.378.828-.842.828-1.319l.542-69.086a33.726 33.726 0 0 1-1.758-.348h11.606c-.594.144-1.19.261-1.784.362l1.06 68.551c0 .346.18.694.465.998l2.404 2.477c.646.651 1.835 1.071 3.153 1.116l16.232.535c2.016.058 3.618 1.013 3.618 2.143zM109.765 209.639H33.127c.545-12.635 3.078-24.286 7.033-34.026h62.575c3.952 9.74 6.487 21.391 7.03 34.026z" clip-rule="evenodd"/>
  <path fill="#0172FF" fill-rule="evenodd" d="M109.894 215.013c0 34.463-16.257 60.351-32.697 66.964H65.595C47.913 275.131 33 249.554 33 215.013c0-1.809.053-3.617.128-5.375h76.638c.076 1.758.128 3.566.128 5.375z" clip-rule="evenodd"/>
  <path fill="#fff" fill-rule="evenodd" d="M95.68 211.859c-.872-5.623-3.932-13.566-6.97-18.859.07 4.083.14 8.159.169 12.223 4.155 12.592 4.758 34.109-.954 47.112-1.073 2.442-2.355 4.668-3.742 6.731-.549 2.95-1.36 5.902-2.183 8.774 2.225-2.398 4.072-4.698 5.064-6.464 3.877-6.889 13.354-18.944 8.615-49.517z" clip-rule="evenodd" opacity=".392"/>
  <path fill="#F2B98B" fill-rule="evenodd" d="M512.259 72.912a792.347 792.347 0 0 1 42.711 51.682c9.156 12.084 18.095 24.686 22.836 39.087 6.628 20.14 4.499 41.975 2.297 63.062-3.208 30.736-3.208 50.16 0 78.545 2.064 18.26 56.933 72.424 22.986 72.424-4.764 0-44.826-22.338-48-26.192-31.267-37.967-66.365-102.408-61.229-135.701.669-4.335 7.063-3.171 8.684-5.516.788-1.14 2.104-1.773 3.361-2.359 12.542-5.831 25.081-11.663 37.621-17.492a715.808 715.808 0 0 1-31.664-116.431" clip-rule="evenodd"/>
  <path fill="#D8986C" fill-rule="evenodd" d="M494.442 233.019c7.2 14.765 33.786-2.292 33.786-9.422 0-7.128 13.617-51.203 14.913-69.35 1.298-18.15-21.06-71.653-31.279-80.226-10.22-8.571-17.42 158.998-17.42 158.998z" clip-rule="evenodd"/>
  <path fill="#000" fill-rule="evenodd" d="M396.075 18.577L483.807.617a10.235 10.235 0 0 1 11.929 7.334l53.807 197.4c1.48 5.433-1.706 11.038-7.133 12.547l-89.685 24.932c-5.536 1.538-11.254-1.775-12.666-7.342L388.207 31.115c-1.436-5.656 2.147-11.367 7.868-12.538z" clip-rule="evenodd"/>
  <path fill="#0072FF" fill-rule="evenodd" d="M405.264 29.754l79.704-17.448c4.805-1.052 9.547 2.067 10.837 7.125l43.447 160.092c1.344 5.277-1.551 10.723-6.482 12.189l-83.423 20.979c-5.029 1.493-10.224-1.727-11.506-7.134L398.115 41.934c-1.303-5.495 1.951-11.043 7.149-12.18z" clip-rule="evenodd"/>
  <path stroke="#606060" d="M504.395 219.93l-10.96 2.798a7.456 7.456 0 0 1-9.067-5.379c-1.02-3.986 1.389-8.044 5.378-9.063l10.96-2.796a7.454 7.454 0 0 1 9.067 5.377 7.449 7.449 0 0 1-5.378 9.063z" clip-rule="evenodd"/>
  <path fill="#0072FF" fill-rule="evenodd" d="M454.552 14.586l-21.91 4.5a1.926 1.926 0 1 1-.776-3.771l21.912-4.502a1.926 1.926 0 0 1 .774 3.773z" clip-rule="evenodd" opacity=".544"/>
  <path fill="#065EB5" fill-rule="evenodd" d="M515.623 127.217l-80.343 16.507a1.926 1.926 0 1 1-.777-3.773l80.344-16.506a1.925 1.925 0 1 1 .776 3.772zM519.027 136.453l-80.343 16.507a1.927 1.927 0 0 1-.776-3.773l80.343-16.506a1.924 1.924 0 1 1 .776 3.772zM523.161 149.335l-80.343 16.507a1.926 1.926 0 1 1-.776-3.773l80.343-16.506a1.924 1.924 0 1 1 .776 3.772zM526.565 158.571l-80.343 16.507a1.926 1.926 0 0 1-.776-3.773l80.343-16.506a1.924 1.924 0 1 1 .776 3.772z" clip-rule="evenodd"/>
  <path fill="#065EB5" fill-rule="evenodd" d="M533.253 187.464c-4.377-10.695-40.851-75.834-45.715-63.681 0 0-4.863 14.097 0 28.194 4.163 12.066 16.152 32.307 19.22 40.029 7.437 3.128 12.436 9.267 12.18 17.71-.035 1.168-.175 2.329-.36 3.482a34.712 34.712 0 0 1-.183 8.626c.078.315.035.638-.138.964-.043.249-.101.498-.15.745 1.126 1.561 16.444-2.366 16.444-2.366s3.079-23.009-1.298-33.703z" clip-rule="evenodd"/>
  <path fill="#F2B98B" fill-rule="evenodd" d="M538.571 165.278a156.404 156.404 0 0 0-32.772-44.637c-3.953-3.75-8.838-7.532-14.24-6.819-7.587 1-11.217 10.286-10.398 17.891 1.66 15.39 14.143 26.962 22.648 39.898 14.265 21.692 18.663 50.079 38.038 67.362 0 0 34.302-34.145-3.276-73.695z" clip-rule="evenodd"/>
  <path fill="#FDEBC8" fill-rule="evenodd" d="M488.511 126.214s5.107 6.319 10.213 9.236c5.107 2.916 9.727 0 10.456-2.431 0 0 1.459 7.778-8.997 5.104-10.456-2.673-11.672-11.909-11.672-11.909z" clip-rule="evenodd"/>
  <path fill="#fff" d="M413.803 43.3a3.813 3.813 0 0 0-.507.05c-.526.092-.839.33-.94.715l.601 3.405-1.39.245-.918-5.203 1.313-.232.148.614c.195-.527.539-.834 1.033-.92.153-.028.301-.033.443-.015l.217 1.34zm3.695 3.468c-.763.135-1.426.01-1.989-.373-.56-.384-.909-.965-1.047-1.744l-.023-.135c-.092-.522-.074-1.007.056-1.453.129-.449.358-.816.688-1.103.332-.29.736-.476 1.21-.56.712-.125 1.311 0 1.797.377.489.377.807.977.952 1.8l.1.568-3.313.584c.105.332.287.581.548.747.264.165.569.217.915.156.535-.095.92-.362 1.153-.803l.817.644a2.137 2.137 0 0 1-.724.841 2.844 2.844 0 0 1-1.14.454zm-.911-4.242a.89.89 0 0 0-.624.398c-.138.216-.2.5-.187.856l1.933-.341-.019-.11c-.061-.307-.186-.53-.376-.669-.19-.141-.432-.186-.727-.134zm6.313 1.708c-.03-.17-.139-.288-.326-.354-.184-.07-.469-.11-.854-.122-1.283-.042-1.995-.458-2.134-1.25-.082-.462.041-.88.368-1.255.33-.379.804-.623 1.423-.732.661-.116 1.215-.054 1.664.188.453.24.723.61.81 1.106l-1.389.245a.674.674 0 0 0-.279-.456c-.152-.11-.363-.14-.636-.091-.234.04-.406.126-.515.254a.507.507 0 0 0-.121.438c.027.154.121.266.282.337.164.067.425.105.784.114.358.007.663.032.916.077.781.14 1.231.542 1.348 1.205.083.475-.052.895-.408 1.262-.355.363-.855.602-1.5.716a2.835 2.835 0 0 1-1.204-.026 2.01 2.01 0 0 1-.906-.5 1.513 1.513 0 0 1-.444-.829l1.318-.232c.056.245.181.417.374.519.193.102.432.127.717.077.266-.047.458-.132.575-.255a.485.485 0 0 0 .137-.436zm2.945-5.72l.226 1.279.889-.157.18 1.02-.89.156.458 2.597c.034.192.095.324.184.394.088.07.236.087.445.05a2.26 2.26 0 0 0 .403-.105l.185 1.053a2.9 2.9 0 0 1-.819.273c-.975.172-1.558-.233-1.751-1.213l-.494-2.804-.76.134-.18-1.02.76-.133-.226-1.28 1.39-.244zm2.203 4.351a1.64 1.64 0 0 1 .11-.946c.134-.308.414-.673.839-1.095a5.034 5.034 0 0 1-.629-.698 1.787 1.787 0 0 1-.314-.738c-.096-.545-.002-1.017.281-1.417.286-.405.72-.658 1.304-.76.522-.093.978-.013 1.366.24.391.25.628.609.71 1.074.098.558-.097 1.1-.586 1.625l-.47.485 1.455 1.191c.123-.405.145-.832.066-1.281l1.183-.209c.161.91.081 1.685-.24 2.324l1.263 1.031-1.577.278-.434-.35c-.456.431-1.019.706-1.689.824-.693.122-1.279.039-1.76-.25-.481-.292-.774-.735-.878-1.328zm2.508.45a1.79 1.79 0 0 0 .899-.446l-1.662-1.353-.088.09c-.243.294-.335.606-.276.936a.938.938 0 0 0 .384.637c.211.141.458.187.743.136zm-1.26-4.165c.043.24.237.518.584.834l.327-.31c.167-.156.276-.297.327-.425a.76.76 0 0 0 .037-.433.581.581 0 0 0-.251-.387.63.63 0 0 0-.489-.098.646.646 0 0 0-.447.277c-.096.15-.125.33-.088.542zm4.992 1.836c-.14-.798-.065-1.474.228-2.028.295-.554.765-.889 1.41-1.002.57-.1 1.049.016 1.435.352l-.029-.501 1.26-.222.887 5.03c.08.455.046.87-.103 1.242a2.01 2.01 0 0 1-.735.923c-.344.243-.767.408-1.271.497a2.87 2.87 0 0 1-1.156-.034c-.389-.087-.697-.234-.926-.442l.467-.954c.414.326.868.446 1.362.36.369-.066.638-.216.808-.45.171-.232.224-.53.16-.892l-.049-.279c-.256.42-.646.675-1.169.767a1.878 1.878 0 0 1-1.648-.463c-.471-.423-.778-1.038-.92-1.846l-.011-.058zm1.408-.144c.083.472.243.825.479 1.061a.92.92 0 0 0 .85.262c.423-.075.698-.287.825-.636l-.386-2.188c-.242-.285-.57-.39-.983-.318a.928.928 0 0 0-.717.548c-.141.306-.164.73-.068 1.271zM419.153 80.592a1.823 1.823 0 0 0 1.093-.61c.285-.327.409-.696.374-1.107l1.178-.207c.051.421-.022.843-.221 1.267a2.868 2.868 0 0 1-.904 1.09c-.4.302-.847.496-1.341.583-.992.175-1.84-.015-2.544-.571-.701-.562-1.152-1.417-1.355-2.566l-.037-.209c-.125-.709-.106-1.362.057-1.96.163-.598.46-1.092.891-1.483.435-.392.985-.646 1.649-.763.817-.144 1.538-.019 2.163.375.629.394 1.031.978 1.204 1.752l-1.178.208c-.119-.465-.367-.819-.743-1.063-.372-.249-.794-.332-1.265-.249-.633.112-1.084.428-1.354.947-.265.514-.322 1.202-.17 2.064l.041.236c.148.839.435 1.455.861 1.847.425.392.959.532 1.601.419zm8.947-.669c-.097-.13-.2-.376-.31-.736-.473.703-1.111 1.126-1.915 1.267-.718.127-1.343.03-1.877-.293a2.016 2.016 0 0 1-.96-1.427c-.133-.759.05-1.397.551-1.916.505-.524 1.28-.878 2.326-1.063l1.211-.213-.101-.573c-.076-.435-.267-.758-.573-.968-.306-.214-.713-.276-1.22-.187-.444.078-.797.256-1.058.534-.261.277-.364.575-.307.894l-1.253.22c-.064-.363.002-.736.199-1.117a2.7 2.7 0 0 1 .908-.993c.409-.276.879-.46 1.408-.554.84-.148 1.534-.053 2.084.285.55.333.898.867 1.046 1.6l.591 3.352c.118.669.297 1.186.537 1.55l.019.108-1.306.23zm-2.234-.584a2.224 2.224 0 0 0 1.058-.5c.314-.263.521-.57.621-.921l-.263-1.495-.976.173c-1.526.269-2.21.85-2.053 1.743.069.39.253.673.552.847.299.174.653.225 1.061.153zm9.137-2.625c-.059-.337-.233-.574-.521-.713-.285-.144-.755-.228-1.412-.251-.652-.024-1.181-.097-1.587-.22-.401-.124-.714-.3-.94-.529a1.654 1.654 0 0 1-.426-.882c-.105-.597.057-1.146.487-1.648.434-.502 1.044-.823 1.83-.961.825-.146 1.532-.05 2.119.286.591.335.945.835 1.062 1.5l-1.252.22c-.06-.341-.258-.61-.593-.805-.331-.196-.716-.255-1.156-.178-.453.08-.79.241-1.011.484a.948.948 0 0 0-.248.842c.053.3.212.506.477.617.265.11.719.18 1.363.21.648.03 1.183.107 1.603.232.42.125.746.308.978.55.236.235.388.548.457.939.115.65-.053 1.22-.504 1.706-.452.483-1.093.797-1.923.943-.584.103-1.118.09-1.603-.037a2.595 2.595 0 0 1-1.209-.675 2.146 2.146 0 0 1-.589-1.138l1.245-.22c.096.413.321.716.674.908.357.188.791.236 1.303.146.471-.084.831-.244 1.081-.483.253-.243.351-.524.295-.843zm3.325-5.195c.433-.775 1.091-1.24 1.975-1.397 1.54-.271 2.469.46 2.789 2.195l.849 4.813-1.246.22-.85-4.82c-.097-.525-.286-.891-.568-1.1-.278-.211-.666-.272-1.164-.184-.404.07-.74.241-1.007.51-.267.27-.455.594-.564.974l.915 5.19-1.245.22-1.823-10.34 1.245-.22.694 3.939zm13.016.634c.197 1.113.099 2.053-.294 2.821-.392.764-1.02 1.221-1.881 1.373-.921.163-1.689-.037-2.307-.6l.088.853-1.144.202-1.824-10.341 1.246-.22.68 3.858c.393-.713 1.031-1.147 1.915-1.303.884-.156 1.637.056 2.257.637.625.579 1.04 1.45 1.245 2.612l.019.108zm-1.27.078c-.15-.848-.429-1.474-.838-1.879-.409-.404-.921-.553-1.536-.444-.821.145-1.344.63-1.569 1.457l.556 3.15c.516.696 1.178.972 1.985.83.597-.105 1.021-.418 1.272-.94.25-.52.294-1.245.13-2.174zm7.971 2.412c-.098-.13-.201-.376-.311-.736-.473.703-1.111 1.126-1.914 1.267-.718.127-1.344.03-1.878-.293a2.017 2.017 0 0 1-.959-1.427c-.134-.759.05-1.397.55-1.916.505-.524 1.28-.878 2.326-1.063l1.212-.213-.101-.573c-.077-.435-.268-.758-.574-.967-.306-.215-.712-.277-1.22-.188-.444.078-.797.256-1.058.534-.261.277-.363.575-.307.894l-1.252.22c-.064-.363.002-.736.198-1.117a2.7 2.7 0 0 1 .908-.993c.409-.276.879-.46 1.409-.554.839-.148 1.534-.053 2.084.285.549.333.898.867 1.045 1.6l.591 3.352c.118.669.297 1.186.538 1.55l.019.108-1.306.23zm-2.235-.584a2.224 2.224 0 0 0 1.058-.5c.314-.263.522-.57.622-.921l-.264-1.495-.976.173c-1.526.269-2.21.85-2.053 1.743.069.39.253.673.552.847.299.174.653.225 1.061.153zm8.003-1.342a1.822 1.822 0 0 0 1.094-.61c.284-.327.409-.696.374-1.106l1.178-.208c.051.421-.023.844-.221 1.267-.198.424-.5.787-.905 1.09-.4.302-.847.496-1.34.584-.992.174-1.84-.016-2.545-.572-.7-.562-1.152-1.417-1.354-2.566l-.037-.209c-.125-.709-.106-1.362.057-1.96.163-.598.46-1.092.891-1.483.435-.391.985-.646 1.649-.763.817-.144 1.538-.019 2.162.376.63.393 1.031.977 1.205 1.752l-1.178.207c-.119-.465-.367-.819-.743-1.063-.373-.249-.794-.332-1.266-.249-.632.112-1.084.428-1.353.947-.266.514-.322 1.202-.17 2.064l.041.236c.148.839.435 1.455.86 1.847.426.392.96.532 1.601.419zm5.889-3.607l-.637.953.451 2.558-1.245.22-1.824-10.341 1.246-.22 1.103 6.254.525-.918 1.846-2.797 1.515-.267-2.298 3.543 3.912 3.683-1.461.257-3.133-2.925zM432.064 108.97l-3.335.588-2.267-12.857-3.764 1.937-.478-2.712 6.52-3.72.357-.063 2.967 16.827zm15.556-9.907c.409 2.324.242 4.186-.503 5.586-.745 1.401-2.044 2.265-3.898 2.592-1.831.323-3.338-.034-4.521-1.071-1.182-1.037-1.983-2.681-2.404-4.931l-.545-3.093c-.414-2.347-.243-4.213.512-5.6.762-1.388 2.059-2.243 3.89-2.566 1.832-.323 3.338.034 4.521 1.071 1.181 1.03 1.982 2.67 2.402 4.92l.546 3.092zm-3.934-2.805c-.246-1.392-.616-2.37-1.112-2.933-.49-.572-1.139-.787-1.946-.645-.785.139-1.312.545-1.582 1.22-.264.665-.294 1.642-.09 2.93l.72 4.086c.242 1.37.606 2.356 1.093 2.961.494.595 1.152.82 1.976.675.815-.144 1.347-.567 1.596-1.27.249-.702.266-1.712.049-3.031l-.704-3.993zm4.981-4.21c-.181-1.03.006-1.925.563-2.681.555-.764 1.375-1.242 2.46-1.434 1.1-.194 2.041-.03 2.823.49.781.513 1.267 1.312 1.458 2.397l.147.83c.183 1.04-.005 1.933-.563 2.682-.558.749-1.379 1.22-2.464 1.41-1.093.193-2.033.034-2.821-.478-.782-.52-1.268-1.32-1.458-2.396l-.145-.82zm2.373.498c.081.462.278.812.59 1.05.318.23.692.307 1.123.23.431-.075.748-.278.952-.607.204-.33.263-.733.179-1.21l-.15-.854c-.082-.462-.274-.813-.579-1.052-.304-.24-.679-.321-1.125-.242-.423.074-.74.277-.952.608-.213.323-.275.735-.187 1.235l.149.842zm7.326 7.538c-.183-1.039.008-1.934.574-2.684.565-.758 1.386-1.232 2.463-1.422 1.092-.192 2.029-.032 2.809.48.787.505 1.278 1.307 1.472 2.407l.146.83c.182 1.032-.002 1.925-.551 2.68-.55.748-1.375 1.218-2.476 1.412-1.108.196-2.052.033-2.834-.487-.782-.521-1.266-1.308-1.452-2.362l-.151-.854zm2.375.509c.074.423.277.76.607 1.012.329.251.702.34 1.118.267.938-.166 1.316-.768 1.133-1.807l-.155-.877c-.081-.461-.277-.808-.588-1.038-.311-.239-.683-.32-1.114-.244-.43.076-.752.28-.963.61-.213.323-.276.727-.191 1.212l.153.865zm-5.586 3.008l-1.782-.59 5.89-14.58 1.781.59-5.889 14.58z"/>
  <path fill="#0072FF" fill-rule="evenodd" d="M164.552 309.957S175.488 302 185.748 302c10.26 0-4.236 9.945-4.236 9.945l-16.96-1.988z" clip-rule="evenodd"/>
  <path fill="#F2B98B" fill-rule="evenodd" d="M168.128 308.161c-21.172 12.954-67.882 1.128-81.38 18.947-9.157 12.085-12.457 54.26-17.198 68.661-6.627 20.14-4.5 41.974-2.297 63.062 3.208 30.736 3.208 50.16 0 78.545-2.064 18.26-56.933 72.423-22.986 72.423 4.764 0 44.826-22.337 48-26.191 31.267-37.968 58.437-110.284 53.301-143.576-.669-4.336 71.522 18.799 60.048-17.492-.492-1.554-62.908 18.077-64.165 17.492-12.541-5.831-25.081-11.663-37.62-17.492 13.805-37.827 46.635-71.562 69.511-95.432 22.876-23.87-5.214-18.947-5.214-18.947z" clip-rule="evenodd"/>
  <path fill="#D8986C" fill-rule="evenodd" d="M149.995 436.732c-7.2 9.404-10.616 89.561-31.078 47.107C98.455 441.384 158.087 378 188.316 378s25.599 53.383 12.8 62.604c-12.8 9.221-51.121-3.872-51.121-3.872z" clip-rule="evenodd"/>
  <path fill="#000" fill-rule="evenodd" d="M331.408 384.106l-28.186-84.583a10.19 10.19 0 0 0-12.262-6.634L93.976 344.76c-5.421 1.429-8.668 6.966-7.268 12.397l23.149 89.738c1.43 5.539 7.132 8.819 12.635 7.265l202.023-57.028c5.592-1.578 8.732-7.51 6.893-13.026z" clip-rule="evenodd"/>
  <path fill="#fff" fill-rule="evenodd" d="M317.767 381.347l-24.633-77.406c-1.485-4.666-6.535-7.203-11.537-5.797l-159.66 42.233c-5.219 1.468-8.474 6.675-7.283 11.656l23.439 82.371c1.216 5.079 6.579 7.956 11.879 6.37l160.852-47.2c5.386-1.611 8.549-7.179 6.943-12.227z" clip-rule="evenodd"/>
  <path fill="#fff" fill-rule="evenodd" d="M317.767 381.347l-24.633-77.406c-1.485-4.666-6.535-7.203-11.537-5.797l-159.66 42.233c-5.219 1.468-8.474 6.675-7.283 11.656l23.439 82.371c1.216 5.079 6.579 7.956 11.879 6.37l160.852-47.2c5.386-1.611 8.549-7.179 6.943-12.227z" clip-rule="evenodd"/>
  <mask id="a" width="245" height="224" x="92" y="256" maskUnits="userSpaceOnUse">
    <path fill="#fff" fill-rule="evenodd" d="M317.767 381.347l-24.633-77.406c-1.485-4.666-6.535-7.203-11.537-5.797l-159.66 42.233c-5.219 1.468-8.474 6.675-7.283 11.656l23.439 82.371c1.216 5.079 6.579 7.956 11.879 6.37l160.852-47.2c5.386-1.611 8.549-7.179 6.943-12.227z" clip-rule="evenodd"/>
  </mask>
  <g mask="url(#a)">
    <path fill="#C6DFFF" fill-rule="evenodd" d="M104.157 415.464c3.33 18.883 68.53 23.169 145.629 9.575 77.098-13.595 136.901-39.922 133.571-58.806-3.329-18.883-68.53-23.169-145.629-9.575-77.098 13.595-136.901 39.922-133.571 58.806z" clip-rule="evenodd"/>
    <path fill="#8CB9F1" fill-rule="evenodd" d="M147.153 408.574c2.291 12.994 47.156 15.943 100.208 6.588 53.051-9.354 94.202-27.47 91.91-40.464-2.291-12.994-47.155-15.943-100.207-6.588-53.052 9.354-94.202 27.47-91.911 40.464z" clip-rule="evenodd"/>
    <path fill="#FF9E00" fill-rule="evenodd" d="M158.327 385.978c-.749-1.357-1.176-2.828-1.13-4.425.156-5.202 3.049-9.57 7.175-12.617-.352-1.637-.268-3.382.271-4.925 1.802-5.159 7.321-8.743 11.559-11.791 4.474-3.215 9.2-6.092 14.089-8.653a20.223 20.223 0 0 1 .073-2.603c.896-9.324 7.106-17.786 15.306-22.287 11.537-6.331 39.635-10.066 55.343-1.148 14.978 8.503 15.582 18.43 15.47 19.02 5.957 1.966 11.717 4.734 17.299 7.571 3.748 1.905 8.469 4.322 8.933 8.981.081.802 0 1.554-.171 2.274 4.594 2.855 10.022 4.732 12.898 9.432 2.223 3.631 2.777 8.333-.377 11.416 3.92 4.55 6.88 14.565.786 18.578-2.846 1.875-7.008-.514-9.826-1.246-5.876-1.52-11.919-2.372-17.719-4.174a45.711 45.711 0 0 1-6.341-2.486c-2.777 2.963-7.496 2.856-11.331 2.222-5.488-.906-10.926-1.995-16.412-2.87a80.518 80.518 0 0 1-.244 3.412c-.883 9.117-12.809 9.519-20.106 9.792-9.636.363-19.728-2.691-25.084-11.12-.145-.226-.268-.457-.401-.686a55.227 55.227 0 0 0-6.455 2.536c-3.727 1.756-9.105 7.232-13.339 4.138-.195-.143-.346-.32-.527-.471-3.542 2.424-7.685 3.62-12.738 2.429a38.316 38.316 0 0 1-3.192-.914c-5.603 6.772-15.738 15.258-20.656 5.962-3.738-7.068.961-12.095 6.847-15.347z" clip-rule="evenodd"/>
    <path stroke="#FFBE00" stroke-width="4" d="M158.327 385.978c-.749-1.357-1.176-2.828-1.13-4.425.156-5.202 3.049-9.57 7.175-12.617-.352-1.637-.268-3.382.271-4.925 1.802-5.159 7.321-8.743 11.559-11.791 4.474-3.215 9.2-6.092 14.089-8.653a20.223 20.223 0 0 1 .073-2.603c.896-9.324 7.106-17.786 15.306-22.287 11.537-6.331 39.635-10.066 55.343-1.148 14.978 8.503 15.582 18.43 15.47 19.02 5.957 1.966 11.717 4.734 17.299 7.571 3.748 1.905 8.469 4.322 8.933 8.981.081.802 0 1.554-.171 2.274 4.594 2.856 10.022 4.732 12.898 9.432 2.223 3.631 2.777 8.333-.377 11.416 3.92 4.55 6.88 14.565.786 18.578-2.846 1.875-7.008-.514-9.826-1.246-5.876-1.52-11.919-2.372-17.719-4.174a45.711 45.711 0 0 1-6.341-2.486c-2.777 2.963-7.496 2.855-11.331 2.222-5.488-.906-10.926-1.995-16.412-2.87a80.518 80.518 0 0 1-.244 3.412c-.883 9.117-12.809 9.519-20.106 9.792-9.636.363-19.728-2.691-25.084-11.12-.145-.226-.268-.457-.401-.686a55.227 55.227 0 0 0-6.455 2.536c-3.727 1.756-9.105 7.232-13.339 4.138-.195-.143-.346-.32-.527-.471-3.542 2.424-7.685 3.62-12.738 2.429a38.316 38.316 0 0 1-3.192-.914c-5.603 6.772-15.739 15.258-20.656 5.962-3.738-7.068.961-12.095 6.847-15.347"/>
    <path fill="#FFBE00" fill-rule="evenodd" d="M277.341 338.228c-8.013 7.109-13.944 15.969-16.971 26.196-2.307 7.799-1.637 15.996-4.173 23.697-.897 2.722-5.002.878-4.112-1.827 3.243-9.847 2.139-20.094 6.395-29.886 3.681-8.465 9.272-15.624 16.193-21.765 2.166-1.921 4.812 1.682 2.668 3.585zM191.239 339.945c5.282 6.622 10.658 13.377 14.167 21.125 3.989 8.804 3.216 18.588 6.937 27.384 1.118 2.646-3.09 4.272-4.207 1.631-3.344-7.907-2.808-16.531-5.751-24.555-3.143-8.572-9.145-15.868-14.789-22.943-1.799-2.256 1.852-4.886 3.643-2.642zM165.39 366.905c5.803 1.16 12.487.571 17.074 4.893 5.163 4.866 5.886 13.802 7.519 20.272.694 2.744-3.506 4.403-4.206 1.632-1.381-5.469-2.009-13.054-5.641-17.568-3.657-4.548-10.184-3.774-15.492-4.835-2.834-.568-2.112-4.966.746-4.394zM158.225 383.313c4.647-.894 12.478-4.138 16.087.4 3.428 4.311.758 9.402-1.934 13.267-1.648 2.37-5.141-.441-3.503-2.795 1.307-1.878 4.99-8.078.192-8.361-1.449-.088-3.096.515-4.509.787l-5.868 1.129c-2.853.549-3.3-3.882-.465-4.427zM301.549 358.022c-13.633 1.913-18.362 15.711-17.321 27.619.249 2.851-4.24 3.33-4.489.472-1.266-14.482 5.178-30.251 21.345-32.517 2.879-.405 3.34 4.022.465 4.426zM316.903 378.152c-3.215 1.09-6.574 2.009-9.687 3.367-1.623.709-3.327 1.547-4.411 3-.468.626-2.12 4.079-.52 4.564l-2.267.239.383-.225c2.484-1.455 5.169 2.119 2.668 3.583-5.138 3.009-6.466-5.223-5.177-8.475 2.609-6.595 11.374-8.165 17.368-10.196 2.746-.93 4.396 3.211 1.643 4.143zM227.833 321.945c-7.471.662-14.021 3.509-19.626 8.429-2.176 1.911-4.824-1.691-2.668-3.585 6.15-5.397 13.645-8.546 21.829-9.27 2.891-.258 3.365 4.17.465 4.426zM202.738 337.722c-.147.026-.297.052-.445.081-1.199.215-2.359-.846-2.477-1.978-.134-1.273.809-2.231 2.012-2.449.148-.028.297-.055.445-.081 1.201-.217 2.359.846 2.478 1.977.134 1.274-.808 2.232-2.013 2.45z" clip-rule="evenodd"/>
    <path fill="#000" fill-rule="evenodd" d="M171.188 434.882l-28.191-100.67-31.188 8.221 27.233 103.082 32.146-10.633zM337.933 387.958l-33.421-99.057-30.715 9.843 32.591 101.515 31.545-12.301z" clip-rule="evenodd"/>
    <path fill="#fff" fill-rule="evenodd" d="M306.557 378.211a3.5 3.5 0 1 1 3.813 5.872 3.5 3.5 0 0 1-3.813-5.872zM299.106 352.048a3.5 3.5 0 1 1 3.812 5.871 3.5 3.5 0 0 1-3.812-5.871zM290.565 324.208a3.5 3.5 0 1 1 3.812 5.873 3.5 3.5 0 0 1-3.812-5.873zM302.831 365.13a3.5 3.5 0 1 1 3.813 5.871 3.5 3.5 0 0 1-3.813-5.871zM295.38 338.967a3.5 3.5 0 1 1 3.813 5.872 3.5 3.5 0 0 1-3.813-5.872zM286.84 311.127a3.5 3.5 0 1 1 3.812 5.871 3.5 3.5 0 1 1-3.812-5.871zM134.956 378.436c6.217-3.59 13.944-1.847 17.258 3.892 3.314 5.74.959 13.303-5.258 16.892-6.218 3.59-13.945 1.848-17.259-3.892-3.313-5.739-.959-13.302 5.259-16.892z" clip-rule="evenodd"/>
    <path fill="#fff" fill-rule="evenodd" d="M127.75 347.955c4.783-2.761 10.675-1.51 13.16 2.794 2.485 4.305.623 10.033-4.16 12.795-4.783 2.761-10.675 1.51-13.161-2.795-2.485-4.304-.622-10.032 4.161-12.794z" clip-rule="evenodd" opacity=".27"/>
    <path fill="#fff" fill-rule="evenodd" d="M144.295 414.613c4.783-2.762 10.675-1.511 13.16 2.794 2.486 4.305.623 10.033-4.16 12.794-4.783 2.762-10.675 1.511-13.16-2.794-2.486-4.305-.623-10.033 4.16-12.794z" clip-rule="evenodd" opacity=".582"/>
  </g>
  <path stroke="#606060" d="M103.873 391.23l3.043 10.843a7.423 7.423 0 0 0 9.151 5.14c3.944-1.105 6.244-5.202 5.137-9.149l-3.045-10.842a7.422 7.422 0 0 0-9.149-5.141 7.416 7.416 0 0 0-5.137 9.149z" clip-rule="evenodd"/>
  <path fill="#0759BE" fill-rule="evenodd" d="M105.053 252.866s12.227-14.669 12.227-29.524v-33.426h-12.227s6.114 17.422 6.114 33.426c0 16.005-6.114 29.524-6.114 29.524z" clip-rule="evenodd"/>
  <path fill="#F2B98B" fill-rule="evenodd" d="M100 470.638s12.164-83.111 12.164-104.239S141 360.063 141 377.771s-9.626 52.278-9.626 70.065 5.684 41.83-6.763 50.496C112.164 506.998 100 470.638 100 470.638z" clip-rule="evenodd"/>
  <path fill="#0072FF" fill-rule="evenodd" d="M112.401 342.912s-3.114 19.804-.085 30.226c3.028 10.422 14.267 5.22 15.265-1.879.998-7.099.269-28.267-1.409-28.503-1.678-.236-13.771.156-13.771.156z" clip-rule="evenodd"/>
  <path stroke="#F9DE4D" d="M216.453 351.763l-8.586 2.462 1.956 6.82M223.646 376.847l-8.586 2.462-1.956-6.82M225.17 349.264l8.586-2.462 1.955 6.819M232.363 374.347l8.585-2.462-1.955-6.819"/>
</svg>
