<svg xmlns="http://www.w3.org/2000/svg" width="202" height="77" fill="none">
  <path fill="#FDC026" fill-rule="evenodd" d="M36.5 75C56.6584 75 73 58.6584 73 38.5S56.6584 2 36.5 2 0 18.3416 0 38.5 16.3416 75 36.5 75z" clip-rule="evenodd"/>
  <path fill="#FFF4D9" fill-rule="evenodd" d="M166 42c11.598 0 21-9.402 21-21 0-11.59798-9.402-21-21-21s-21 9.40202-21 21c0 11.598 9.402 21 21 21zM114.5 75c9.113 0 16.5-7.3873 16.5-16.5S123.613 42 114.5 42 98 49.3873 98 58.5 105.387 75 114.5 75z" clip-rule="evenodd"/>
  <path fill="#FDC026" fill-rule="evenodd" d="M66.5 35C75.6127 35 83 27.6127 83 18.5S75.6127 2 66.5 2 50 9.3873 50 18.5 57.3873 35 66.5 35z" clip-rule="evenodd"/>
  <path fill="#FFF4D9" fill-rule="evenodd" d="M98 35c4.418 0 8-3.5817 8-8s-3.582-8-8-8c-4.4183 0-8 3.5817-8 8s3.5817 8 8 8zM158 60c4.418 0 8-3.5817 8-8s-3.582-8-8-8-8 3.5817-8 8 3.582 8 8 8zM190.5 75c6.351 0 11.5-5.1487 11.5-11.5S196.851 52 190.5 52 179 57.1487 179 63.5 184.149 75 190.5 75z" clip-rule="evenodd"/>
  <path fill="#FDC026" d="M115.369 58.3955h4.082v2.3848h-4.082v4.6513h-2.535v-4.6513h-4.104v-2.3848h4.104v-4.3506h2.535v4.3506z"/>
  <path fill="#fff" d="M17.2539 35.0469l2.8711 7.6289 2.8643-7.6289h2.2353V45H23.502v-3.2812l.1709-4.3887L20.7334 45h-1.2373l-2.9326-7.6631.1709 4.3819V45h-1.7227v-9.9531h2.2422zm17.9649 5.2363c0 .9753-.1687 1.832-.5059 2.5703-.3372.7337-.8203 1.2988-1.4492 1.6953-.6244.392-1.3444.5879-2.1602.5879-.8066 0-1.5267-.1959-2.1601-.5879-.6289-.3965-1.1166-.9593-1.4629-1.6884-.3418-.7292-.515-1.57-.5196-2.5225v-.5606c0-.9707.1709-1.8274.5127-2.5703.3464-.7428.8317-1.3102 1.4561-1.7021.6289-.3965 1.3489-.5947 2.1601-.5947.8112 0 1.529.1959 2.1534.5878.6289.3874 1.1142.948 1.456 1.6817.3418.7292.515 1.5791.5196 2.5498v.5537zm-1.7295-.5195c0-1.1029-.2097-1.9483-.6289-2.5362-.4148-.5879-1.0049-.8818-1.7706-.8818-.7474 0-1.333.2939-1.7568.8818-.4193.5834-.6335 1.4105-.6426 2.4815v.5742c0 1.0938.2119 1.9391.6358 2.5361.4284.597 1.0208.8955 1.7773.8955.7656 0 1.3535-.2916 1.7637-.875.4147-.5833.6221-1.4355.6221-2.5566v-.5195zM44.8369 45h-1.7295l-4.4365-7.0615V45h-1.7295v-9.9531h1.7295l4.4502 7.0888v-7.0888h1.7158V45zm7.8613-4.4434h-4.0878v3.0625h4.7783V45h-6.5078v-9.9531h6.4599v1.3945h-4.7304v2.7481h4.0878v1.3671zm5.3457-.7929l2.2901-4.7168h1.914l-3.3359 6.289V45h-1.7363v-3.6641l-3.3428-6.289h1.9209l2.29 4.7168z"/>
  <path fill="#FDC026" d="M192.369 63.3955h4.082v2.3848h-4.082v4.6513h-2.535v-4.6513h-4.104v-2.3848h4.104v-4.3506h2.535v4.3506zM167.369 21.3955h4.082v2.3848h-4.082v4.6513h-2.535v-4.6513h-4.104v-2.3848h4.104v-4.3506h2.535v4.3506z"/>
</svg>
