<svg xmlns="http://www.w3.org/2000/svg" width="64" height="21" fill="none">
  <path fill="#000" d="M6.72363 7.28809c-.42252-.0573-.79492-.08594-1.11718-.08594-1.17448 0-1.94434.39746-2.30957 1.19238V16H.19238V4.37695H3.125l.08594 1.38575c.62304-1.06706 1.486-1.60059 2.58886-1.60059.34375 0 .66602.04655.9668.13965l-.04297 2.98633zm6.63867 8.92671c-1.7044 0-3.0937-.5227-4.16796-1.5683-1.06706-1.0456-1.60059-2.4385-1.60059-4.1787v-.3008c0-1.16733.22559-2.20932.67676-3.12598.45117-.92383 1.08854-1.63282 1.91209-2.12696.8307-.5013 1.7761-.75195 2.836-.75195 1.5898 0 2.8395.5013 3.749 1.50391.9166 1.0026 1.375 2.42415 1.375 4.26464v1.26754h-7.4014c.1003.7592.4011 1.3679.9024 1.8262.5084.4583 1.1494.6875 1.9228.6875 1.196 0 2.1305-.4333 2.8037-1.2998l1.5254 1.708c-.4655.6589-1.0957 1.1745-1.8906 1.5469-.7949.3652-1.6758.5478-2.6426.5478zm-.3545-9.53902c-.6159 0-1.1172.20768-1.5039.62305-.3796.41536-.623 1.00976-.7305 1.7832h4.3184v-.24707c-.0143-.6875-.2005-1.21745-.5586-1.58984-.3581-.37956-.8665-.56934-1.5254-.56934zM26.21 12.7881c0-.3796-.1898-.6768-.5694-.8916-.3724-.222-.9739-.419-1.8047-.5908-2.7643-.5801-4.1464-1.75459-4.1464-3.52347 0-1.03125.4261-1.89063 1.2783-2.57813.8593-.69466 1.9801-1.04199 3.3623-1.04199 1.4752 0 2.6533.34733 3.5342 1.04199.888.69466 1.332 1.59701 1.332 2.70703h-3.1045c0-.44401-.1432-.80924-.4297-1.0957-.2864-.29362-.734-.44043-1.3428-.44043-.5228 0-.9274.11816-1.2138.35449-.2865.23633-.4297.53711-.4297.90235 0 .34375.1611.62304.4834.83789.3294.20768.8808.3903 1.6543.54785.7734.15039 1.4251.32226 1.9551.51562 1.6399.6016 2.4599 1.6436 2.4599 3.126 0 1.0599-.4547 1.9193-1.3642 2.5781-.9095.6517-2.084.9775-3.5235.9775-.9739 0-1.8405-.1718-2.5996-.5156-.7519-.3509-1.3428-.8271-1.7724-1.4287-.4297-.6087-.6446-1.264-.6446-1.9658h2.9434c.0286.5514.2327.9739.6123 1.2676.3795.2936.888.4404 1.5254.4404.5944 0 1.042-.111 1.3427-.333.308-.2292.462-.5264.462-.8916zm8.7441-11.26857v2.85742h1.9873V6.6543h-1.9873v5.8008c0 .4297.0824.7376.2471.9238.1647.1862.4798.2793.9453.2793.3437 0 .6481-.0251.9131-.0752v2.3525c-.6088.1862-1.2354.2793-1.8799.2793-2.1771 0-3.2871-1.0992-3.3301-3.2978V6.6543h-1.6973V4.37695h1.6973V1.51953h3.1045zm3.2871 10.26957c0-.7233.2005-1.3929.6016-2.00883.4082-.61588 1.153-1.2998 2.2343-2.05175-.4654-.62305-.8307-1.20671-1.0957-1.75098-.2649-.55143-.3974-1.12435-.3974-1.71875 0-1.21745.3831-2.20573 1.1494-2.96484.7734-.76628 1.8118-1.14942 3.1152-1.14942 1.1674 0 2.1234.34733 2.8682 1.04199.752.69466 1.1279 1.5612 1.1279 2.59961 0 1.2461-.6302 2.34538-1.8906 3.29785l-1.2031.87012 2.6963 3.1367c.4225-.8307.6338-1.74738.6338-2.74998h2.6425c0 2.03388-.469 3.68098-1.4072 4.94138L51.6582 16h-3.5234l-.8057-.9238c-1.153.7591-2.4779 1.1386-3.9746 1.1386-1.5469 0-2.7858-.4046-3.7168-1.2138-.931-.8164-1.3965-1.8871-1.3965-3.2119zm5.2637 1.9336c.7448 0 1.4502-.2077 2.1162-.6231l-3.083-3.5664-.2256.16114c-.6374.54426-.9561 1.18526-.9561 1.92286 0 .623.197 1.1315.5909 1.5254.401.3867.9202.5801 1.5576.5801zm-1.1387-9.50688c0 .53711.3151 1.21387.9453 2.03027l.8272-.54785c.4225-.27213.7125-.53711.8701-.79492.1647-.25781.2471-.56575.2471-.92383 0-.35807-.1325-.66959-.3975-.93457-.265-.26497-.6051-.39746-1.0205-.39746-.444 0-.8021.14323-1.0742.42969-.265.28646-.3975.66601-.3975 1.13867zm10.291 5.88668c0-1.78316.4226-3.21904 1.2676-4.30758.8522-1.08854 1.9981-1.63281 3.4375-1.63281 1.2747 0 2.2666.43685 2.9756 1.31055l.1289-1.09571h2.8144V15.6133c0 1.0169-.2327 1.9013-.6982 2.6533-.4583.752-1.1064 1.3249-1.9443 1.7188-.8379.3938-1.819.5908-2.9434.5908-.8522 0-1.6829-.1719-2.4922-.5157-.8092-.3365-1.4215-.7734-1.8369-1.3105l1.375-1.8906c.7734.8665 1.7116 1.2998 2.8145 1.2998.8235 0 1.4645-.222 1.9228-.666.4583-.4369.6875-1.0599.6875-1.8692v-.623c-.7161.8092-1.6579 1.2138-2.8252 1.2138-1.3965 0-2.528-.5442-3.3945-1.6328-.8594-1.0957-1.2891-2.5459-1.2891-4.3506v-.1289zm3.1045.2256c0 1.0528.2113 1.8799.6338 2.4815.4225.5944 1.0026.8916 1.7402.8916.9454 0 1.6221-.3545 2.0303-1.0635V7.75c-.4153-.70898-1.0849-1.06348-2.0088-1.06348-.7448 0-1.332.30437-1.7617.91309-.4225.60872-.6338 1.51823-.6338 2.72849z"/>
</svg>
