<svg xmlns="http://www.w3.org/2000/svg" width="45.355" height="45.354">
  <defs>
    <clipPath id="a">
      <path d="M0 34.016h34.017V0H0z"/>
    </clipPath>
  </defs>
  <g clip-path="url(#a)" transform="matrix(1.33333 0 0 -1.33333 0 45.354)">
    <path fill="#eb5c5a" d="M17.008 0c9.394 0 17.008 7.614 17.008 17.008 0 9.392-7.614 17.008-17.008 17.008C7.615 34.016 0 26.4 0 17.008 0 7.614 7.615 0 17.008 0"/>
    <path fill="#fff" d="M17.009 25.557a8.504 8.504 0 0 1-3.413-16.292c-.025.593-.004 1.306.147 1.952.164.69 1.094 4.634 1.094 4.634s-.271.543-.271 1.345c0 1.26.73 2.202 1.64 2.202.773 0 1.147-.581 1.147-1.277 0-.778-.496-1.94-.751-3.018-.213-.902.452-1.637 1.342-1.637 1.61 0 2.696 2.069 2.696 4.52 0 1.864-1.255 3.259-3.538 3.259-2.58 0-4.186-1.923-4.186-4.072 0-.741.218-1.263.56-1.668.158-.186.179-.261.122-.474-.04-.156-.134-.534-.173-.682-.057-.216-.231-.293-.425-.213-1.19.485-1.742 1.786-1.742 3.248 0 2.416 2.037 5.313 6.077 5.313 3.247 0 5.384-2.35 5.384-4.871 0-3.337-1.855-5.83-4.59-5.83-.916 0-1.78.498-2.076 1.06 0 0-.494-1.958-.598-2.336-.18-.656-.533-1.311-.856-1.822a8.504 8.504 0 0 1 10.913 8.155 8.503 8.503 0 0 1-8.503 8.504"/>
  </g>
</svg>
