<svg xmlns="http://www.w3.org/2000/svg" width="45.35" height="45.35">
  <defs>
    <clipPath id="a">
      <path d="M0 34.02h34.02V0H0z"/>
    </clipPath>
  </defs>
  <g clip-path="url(#a)" transform="matrix(1.33333 0 0 -1.33333 0 45.35)">
    <path fill="#7ccdf1" d="M17 0a17 17 0 1 1 0 34.02A17 17 0 0 1 17 0"/>
    <path fill="#fff" d="M25.54 21.46a6.97 6.97 0 0 0-2-.55 3.5 3.5 0 0 1 1.53 1.94c-.68-.4-1.42-.7-2.22-.85a3.49 3.49 0 0 1-5.96-3.19 9.92 9.92 0 0 0-7.2 3.65 3.49 3.49 0 0 1 1.08-4.66 3.5 3.5 0 0 0-1.58.43v-.04c0-1.7 1.2-3.1 2.8-3.43a3.42 3.42 0 0 0-1.58-.06 3.5 3.5 0 0 1 3.27-2.42 7.01 7.01 0 0 0-5.18-1.45 9.9 9.9 0 0 1 5.36-1.57c6.43 0 9.95 5.32 9.95 9.94l-.01.45a7.1 7.1 0 0 1 1.74 1.81"/>
  </g>
</svg>
