<svg xmlns="http://www.w3.org/2000/svg" width="226" height="87" fill="none">
  <path stroke="#C6DFFF" d="M60.7 62.9L102 50.1l25.3-31.5L64 10 15.5 39.8l86.5 6.5L159.5 76l5-66 50.8 44.2-57.6 24.5-33-62.7 37.5-3-65 35.3-36.5-40-3.5 54.6-41.7-19.4"/>
  <path fill="#C6DFFF" fill-rule="evenodd" d="M98.5 63a14.5 14.5 0 1 0 0-29 14.5 14.5 0 0 0 0 29zM12 54a12 12 0 1 0 0-24 12 12 0 0 0 0 24zm47 21a12 12 0 1 0 0-24 12 12 0 0 0 0 24zm105-50a12 12 0 1 0 0-24 12 12 0 0 0 0 24zm50 41a12 12 0 1 0 0-24 12 12 0 0 0 0 24zM60 16a8 8 0 1 0 0-16 8 8 0 0 0 0 16zm66 9a8 8 0 1 0 0-16 8 8 0 0 0 0 16zm32 62a12 12 0 1 0 0-24 12 12 0 0 0 0 24z" clip-rule="evenodd"/>
  <path fill="#0172FF" fill-rule="evenodd" d="M99 56a8 8 0 1 0 0-16 8 8 0 0 0 0 16zm58 26a6 6 0 1 0 0-12 6 6 0 0 0 0 12zm58-22a6 6 0 1 0 0-12 6 6 0 0 0 0 12zm-51-41a6 6 0 1 0 0-12 6 6 0 0 0 0 12zm-37.5 2a4.5 4.5 0 1 0 0-9 4.5 4.5 0 0 0 0 9zm-66-9a4.5 4.5 0 1 0 0-9 4.5 4.5 0 0 0 0 9zM60 72a7 7 0 1 0 0-14 7 7 0 0 0 0 14zM12 47a7 7 0 1 0 0-14 7 7 0 0 0 0 14z" clip-rule="evenodd"/>
</svg>
